<svg width="40" height="40" viewBox="0 0 40 40" fill="none" xmlns="http://www.w3.org/2000/svg">
<rect width="40" height="40" rx="6.95652" fill="#F6F5DA" fill-opacity="0.3"/>
<path fill-rule="evenodd" clip-rule="evenodd" d="M6.95651 14.2029C6.95651 12.2811 7.71997 10.4379 9.07893 9.07896C10.4379 7.72 12.281 6.95654 14.2029 6.95654H25.7971C27.719 6.95654 29.5621 7.72 30.9211 9.07896C32.28 10.4379 33.0435 12.2811 33.0435 14.2029V25.7971C33.0435 27.719 32.28 29.5621 30.9211 30.9211C29.5621 32.28 27.719 33.0435 25.7971 33.0435H14.2029C12.281 33.0435 10.4379 32.28 9.07893 30.9211C7.71997 29.5621 6.95651 27.719 6.95651 25.7971V14.2029ZM14.2029 9.85509C13.0498 9.85509 11.9439 10.3132 11.1285 11.1285C10.3131 11.9439 9.85506 13.0498 9.85506 14.2029V25.7971C9.85506 26.9502 10.3131 28.0561 11.1285 28.8715C11.9439 29.6869 13.0498 30.145 14.2029 30.145H25.7971C26.9502 30.145 28.0561 29.6869 28.8715 28.8715C29.6868 28.0561 30.1449 26.9502 30.1449 25.7971V14.2029C30.1449 13.0498 29.6868 11.9439 28.8715 11.1285C28.0561 10.3132 26.9502 9.85509 25.7971 9.85509H14.2029ZM25.213 13.0638C25.213 12.6794 25.3657 12.3108 25.6375 12.039C25.9093 11.7672 26.2779 11.6145 26.6623 11.6145H26.6768C27.0612 11.6145 27.4298 11.7672 27.7016 12.039C27.9734 12.3108 28.1261 12.6794 28.1261 13.0638C28.1261 13.4482 27.9734 13.8168 27.7016 14.0886C27.4298 14.3604 27.0612 14.5131 26.6768 14.5131H26.6623C26.2779 14.5131 25.9093 14.3604 25.6375 14.0886C25.3657 13.8168 25.213 13.4482 25.213 13.0638ZM20 15.6522C18.8469 15.6522 17.741 16.1103 16.9256 16.9256C16.1102 17.741 15.6522 18.8469 15.6522 20C15.6522 21.1531 16.1102 22.259 16.9256 23.0744C17.741 23.8898 18.8469 24.3478 20 24.3478C21.1531 24.3478 22.259 23.8898 23.0744 23.0744C23.8897 22.259 24.3478 21.1531 24.3478 20C24.3478 18.8469 23.8897 17.741 23.0744 16.9256C22.259 16.1103 21.1531 15.6522 20 15.6522ZM12.7536 20C12.7536 18.0782 13.5171 16.235 14.876 14.8761C16.235 13.5171 18.0781 12.7536 20 12.7536C21.9219 12.7536 23.765 13.5171 25.124 14.8761C26.4829 16.235 27.2464 18.0782 27.2464 20C27.2464 21.9219 26.4829 23.765 25.124 25.124C23.765 26.4829 21.9219 27.2464 20 27.2464C18.0781 27.2464 16.235 26.4829 14.876 25.124C13.5171 23.765 12.7536 21.9219 12.7536 20Z" fill="#F8F7ED"/>
</svg>
