<svg width="70" height="64" viewBox="0 0 70 64" fill="none" xmlns="http://www.w3.org/2000/svg">
<rect y="0.00146484" width="70" height="63.7071" rx="9.28524" fill="#0E6AC7" fill-opacity="0.4"/>
<path d="M35 13.1555C34.2379 13.1555 33.4833 13.3056 32.7792 13.5972C32.0751 13.8889 31.4354 14.3163 30.8965 14.8552C30.3576 15.3941 29.9301 16.0338 29.6385 16.7379C29.3469 17.442 29.1968 18.1967 29.1968 18.9587C29.1968 19.7208 29.3469 20.4755 29.6385 21.1796C29.9301 21.8837 30.3576 22.5234 30.8965 23.0623C31.4354 23.6012 32.0751 24.0286 32.7792 24.3203C33.4833 24.6119 34.2379 24.762 35 24.762C36.5392 24.762 38.0152 24.1506 39.1036 23.0623C40.1919 21.974 40.8033 20.4979 40.8033 18.9587C40.8033 17.4196 40.1919 15.9435 39.1036 14.8552C38.0152 13.7669 36.5392 13.1555 35 13.1555ZM25.3279 18.9587C25.3279 16.3935 26.3469 13.9334 28.1608 12.1195C29.9747 10.3056 32.4348 9.28662 35 9.28662C37.5652 9.28662 40.0254 10.3056 41.8393 12.1195C43.6531 13.9334 44.6722 16.3935 44.6722 18.9587C44.6722 21.524 43.6531 23.9841 41.8393 25.798C40.0254 27.6119 37.5652 28.6309 35 28.6309C32.4348 28.6309 29.9747 27.6119 28.1608 25.798C26.3469 23.9841 25.3279 21.524 25.3279 18.9587ZM28.0722 33.9673C28.4127 34.2201 28.8511 34.5167 29.3747 34.8107C30.6979 35.5587 32.6375 36.3325 34.9975 36.3325C37.3575 36.3325 39.2996 35.5587 40.6228 34.8107C41.1464 34.5167 41.5848 34.2201 41.9253 33.9673C42.4102 34.0963 42.8908 34.239 43.3671 34.3955L45.8431 35.2079C47.7002 35.8192 49.1033 37.3023 49.6037 39.1361L50.6276 46.523C50.8211 47.9261 50.086 48.9449 49.0646 49.1874C46.3641 49.8322 41.8118 50.5544 35 50.5544C28.1883 50.5544 23.6334 49.8322 20.9329 49.1874C19.9141 48.9449 19.179 47.9261 19.3699 46.523L20.3938 39.1361C20.6483 38.2217 21.125 37.3844 21.7816 36.699C22.4382 36.0136 23.2543 35.5014 24.1569 35.2079L26.633 34.3955C27.1076 34.2407 27.5873 34.098 28.0722 33.9673ZM29.9035 30.4725L29.1529 29.7322L28.1161 29.9695C27.2116 30.1758 26.314 30.426 25.4233 30.7201L22.9473 31.5325C21.4091 32.0325 20.0222 32.9133 18.9156 34.0929C17.809 35.2726 17.0186 36.7128 16.6178 38.2798L16.592 38.383L15.5397 45.9917C15.1245 48.9939 16.7313 52.1638 20.0379 52.9505C23.0556 53.6701 27.9097 54.4232 34.9975 54.4232C42.0878 54.4232 46.9419 53.6701 49.9596 52.9531C53.2662 52.1638 54.8756 48.9939 54.4604 45.9943L53.4054 38.3855L53.3797 38.2824C52.979 36.7146 52.1884 35.2736 51.0813 34.0935C49.9742 32.9134 48.5866 32.0324 47.0476 31.5325L44.5742 30.7201C43.6852 30.4277 42.7876 30.1784 41.8814 29.9721L40.8446 29.7322L40.0966 30.4699L40.094 30.4725C39.9943 30.5633 39.891 30.6502 39.7845 30.733C39.452 30.9971 39.0983 31.2335 38.727 31.4397C37.5931 32.095 36.3096 32.4476 35 32.4636C33.6904 32.4476 32.407 32.095 31.273 31.4397C30.7858 31.1644 30.3252 30.8404 29.9035 30.4725Z" fill="#062C80"/>
</svg>
