<svg width="51" height="54" viewBox="0 0 51 54" fill="none" xmlns="http://www.w3.org/2000/svg">
<path d="M28.2406 37.1278L26.8588 50.2226L26.8368 50.219L26.653 51.7263L19.5339 50.5431L19.0743 50.4627C19.0704 50.4569 19.067 50.4496 19.0649 50.4417C19.0644 50.44 19.0641 50.4385 19.0638 50.4371C19.0643 50.4358 19.0647 50.4343 19.0653 50.4328L19.1219 50.2674L19.1402 50.0935L20.6638 35.6552L20.9363 33.0727L18.5337 34.058L6.92091 38.8201L6.84719 38.6403L5.56115 39.3069L2.66259 32.2385L2.45207 31.7138L2.62823 31.6416L15.3743 26.4147L17.7768 25.4295L15.7698 23.7819L5.41691 15.2826L5.42419 15.2727L4.33772 14.3376C4.31892 14.3214 4.30074 14.3065 4.28351 14.2929C4.28314 14.2924 4.28277 14.2918 4.28239 14.2912C4.27839 14.2847 4.2753 14.2771 4.27359 14.2696C4.27296 14.2668 4.27261 14.2645 4.27243 14.2627L4.27512 14.2572L8.31473 8.69004L8.76348 8.07925L8.76988 8.08758L8.90732 8.20039L20.17 17.4451L22.3937 19.2704L22.6956 16.4093L24.2445 1.72846L30.3396 2.74165L30.3378 2.75694L31.8101 2.99482C31.8146 2.99555 31.8191 2.99625 31.8235 2.99692C31.8252 3.00043 31.8268 3.00431 31.828 3.00846C31.8305 3.01703 31.8304 3.02247 31.8303 3.02334L31.8084 3.30469L30.2754 17.8318L30.0029 20.4143L32.4055 19.429L45.3277 14.13L45.3855 14.2615L47.8708 20.322L47.8078 20.3478L48.4594 21.7819L48.388 21.8139L35.5213 27.0902L33.1182 28.0756L35.126 29.7232L46.4979 39.0551L46.6132 39.1555C46.614 39.1562 46.618 39.1601 46.6222 39.1679C46.6258 39.1745 46.6282 39.1814 46.6294 39.1876L46.537 39.3227L43.0223 44.166L42.9739 44.1243L42.1085 45.4002L42.0498 45.3547L30.7662 36.0921L28.5425 34.2666L28.2406 37.1278ZM45.9614 12.6798L45.4124 13.8709L45.9614 12.6798Z" stroke="#0E6AC7" stroke-width="3.10087"/>
</svg>
