<svg width="47" height="47" viewBox="0 0 47 47" fill="none" xmlns="http://www.w3.org/2000/svg">
<path fill-rule="evenodd" clip-rule="evenodd" d="M0.00012207 9.32207C0.00012207 4.17367 4.17372 6.10352e-05 9.32212 6.10352e-05H37.2981C42.0905 6.10352e-05 46.0382 3.61639 46.5613 8.26903C46.2278 8.10673 45.8651 8.03648 45.5165 8.08001C45.2529 8.11293 45.0635 8.20353 44.8163 8.36825C44.4374 8.54944 44.0667 8.79653 43.7701 9.10128C41.0515 11.4487 38.6377 14.0927 36.6686 17.0827C34.749 19.9327 33.2495 22.9309 31.7582 25.9951C31.1888 27.1019 30.6286 28.212 30.0691 29.3207L30.069 29.3209L30.069 29.321C28.4593 32.5111 26.8553 35.6898 25.0517 38.7461C25.0041 38.8072 24.9634 38.8827 24.9212 38.961C24.8097 39.1675 24.6876 39.3939 24.4009 39.4297C24.3185 39.3061 24.3103 39.2402 24.2938 39.1084C24.2856 39.0425 24.2938 38.9746 24.3021 38.9066C24.3103 38.8387 24.3185 38.7707 24.3103 38.7048C24.5247 36.6702 24.8873 34.7509 25.3818 32.8151C27.2524 25.2863 30.1033 18.1035 33.3742 11.069C34.3959 9.06742 35.3434 7.00814 36.1591 4.96533L36.2055 4.79901C36.4203 4.03035 36.6216 3.30993 36.5218 2.5106L36.5712 2.37057C36.3819 0.854862 35.1958 -0.0678504 33.6801 0.121463L33.5483 0.137926C33.0293 0.269675 32.5845 0.459093 32.1479 0.714411C31.2746 1.22505 30.4838 1.85926 29.7588 2.48523C26.6118 5.15386 23.7779 8.18497 21.1498 11.2573C19.7987 12.7646 18.5218 14.3296 17.1295 16.0429C17.1072 15.3789 17.2267 14.9716 17.3535 14.5397C17.3667 14.4947 17.38 14.4495 17.3932 14.4036C17.6743 13.5679 17.9813 12.729 18.2905 11.884C18.6792 10.8216 19.0714 9.74963 19.4202 8.66231C19.6839 8.09398 19.8075 7.47621 19.9311 6.85843L19.9311 6.85836C19.9641 6.58653 19.9888 6.2488 19.9559 5.98519C19.8818 5.39209 19.6183 4.88958 19.1076 4.55179C18.5969 4.21401 18.045 4.08215 17.5178 4.148C17.2542 4.18092 16.9329 4.28798 16.6199 4.46094C15.9279 4.81508 15.3265 5.35869 14.791 5.89407C11.6522 9.16404 8.96646 12.8459 6.35482 16.5855L4.91308 18.4388C5.3499 16.0417 6.13269 13.7353 6.99783 11.5524C7.14615 11.1324 7.45096 10.8935 7.82167 10.6464C8.62076 10.0781 8.93385 9.36971 8.84331 8.6448C8.78569 8.1835 8.58804 7.67276 8.20092 7.25261C7.73144 6.70889 7.03128 6.4617 6.37228 6.54401C5.84507 6.60986 5.34256 6.87341 4.86474 7.33466C4.27982 8.01007 3.90906 8.79259 3.54653 9.64102C1.94088 13.3803 0.847492 17.2465 0.00012207 21.1864V9.32207ZM37.0798 24.1258C39.4762 19.3751 42.5381 15.2008 46.6201 11.8205V37.2981C46.6201 42.4465 42.4465 46.6201 37.2981 46.6201H9.32213C4.17373 46.6201 0.00012207 42.4465 0.00012207 37.2981V28.2515C0.103037 28.3228 0.216182 28.388 0.340313 28.4468C0.694508 28.6034 1.10637 28.6858 1.50178 28.6364C1.89718 28.587 2.27612 28.4058 2.7045 28.0846C3.11846 27.7819 3.40733 27.3819 3.69619 26.9819C3.79248 26.8486 3.88877 26.7152 3.98969 26.5855C5.25842 24.9546 6.40268 23.2798 7.54694 21.6049C8.11906 20.7675 8.69119 19.9301 9.27887 19.0982C9.43714 18.8763 9.59529 18.6534 9.75375 18.43L9.75376 18.43C10.9067 16.805 12.0757 15.1576 13.4228 13.6948C13.3899 13.9666 13.3569 14.2385 13.258 14.5185C13.1571 14.916 13.052 15.314 12.9469 15.7119C12.6317 16.9058 12.3165 18.0997 12.1125 19.2797C12.0862 19.4637 12.0555 19.6443 12.0252 19.8218L12.0252 19.8218C11.9322 20.3671 11.8443 20.883 11.9064 21.3802L11.9393 21.6438C12.2028 23.2172 13.3147 24.0822 14.5668 23.9259C14.9623 23.8765 15.3412 23.6953 15.7778 23.44C16.2144 23.1846 16.511 22.8799 16.8652 22.501C17.2223 22.078 17.594 21.6532 17.9726 21.2206C18.3976 20.7348 18.8313 20.2392 19.2626 19.7252C21.6353 16.7517 24.0739 13.77 26.7348 10.9613C28.0283 9.52809 29.3217 8.0949 30.7716 6.84295L30.9281 7.02419C30.6727 7.65845 30.409 8.2268 30.0877 8.8693C27.2287 14.9153 24.6498 21.0602 22.7133 27.5264C21.4856 31.6286 20.4555 35.706 20.3233 40.0059C20.315 40.4755 20.3149 41.0109 20.3725 41.4722C20.4548 42.1312 20.5948 42.7161 20.8666 43.2845C21.4925 44.5449 22.5139 45.2205 23.766 45.0641C24.1112 45.021 24.4438 44.8774 24.8187 44.7156L24.8187 44.7156C24.8635 44.6963 24.9089 44.6767 24.9549 44.657C24.965 44.6527 24.9751 44.6484 24.9852 44.6441C25.5536 44.3723 25.9738 43.9852 26.4516 43.5239C27.0365 42.8485 27.5555 42.1813 28.0581 41.3824C28.4412 40.6987 28.8264 40.0315 29.2115 39.3643L29.2117 39.364C29.5968 38.6969 29.9819 38.0298 30.365 37.3462C31.0153 36.0696 31.6664 34.7984 32.3161 33.5297L32.3172 33.5276L32.3175 33.5271C33.9227 30.3928 35.52 27.2739 37.0798 24.1258ZM41.8726 40.5448C41.8732 40.545 41.8738 40.5452 41.8743 40.5456C41.9179 40.5708 41.9513 40.6107 41.9685 40.6581C41.9857 40.7054 41.9856 40.7574 41.9684 40.8048L41.9716 40.8067L41.9532 40.8385L41.953 40.8389L41.9527 40.8394L41.3636 41.8599L41.363 41.8595C41.3343 41.9083 41.2875 41.9438 41.2328 41.9582C41.1781 41.9727 41.1199 41.9649 41.0708 41.9366C41.0562 41.9281 41.0433 41.9178 41.0313 41.9066L39.2253 40.8638V42.9987H39.2182C39.2183 42.9994 39.2184 43.0001 39.2185 43.0008C39.2186 43.0013 39.2187 43.0019 39.2187 43.0025C39.2186 43.0529 39.2007 43.1017 39.1682 43.1403C39.1357 43.1788 39.0906 43.2047 39.0409 43.2132V43.2172H37.8251V43.2164C37.7074 43.2155 37.6122 43.12 37.6122 43.002C37.6123 42.9855 37.6144 42.969 37.6183 42.953V40.8673L35.7695 41.9347L35.7661 41.9287C35.7655 41.9291 35.765 41.9294 35.7645 41.9298C35.764 41.9302 35.7634 41.9306 35.7629 41.931C35.7191 41.9561 35.668 41.965 35.6183 41.9562C35.5687 41.9473 35.5237 41.9212 35.4914 41.8825L35.488 41.8846L34.8801 40.8316L34.8808 40.8312C34.8528 40.782 34.8454 40.7237 34.8602 40.669C34.875 40.6144 34.9109 40.5678 34.9599 40.5395C34.9743 40.5314 34.9895 40.5249 35.0053 40.5203L36.8179 39.4737L34.9645 38.4037L34.9626 38.4029L34.9609 38.4017L34.9572 38.3996L34.9574 38.3993C34.8607 38.3394 34.8275 38.2149 34.8816 38.1148L34.8811 38.1145L35.4686 37.0967L35.4697 37.0973C35.4703 37.0963 35.4708 37.0952 35.4712 37.0941C35.4717 37.0928 35.4722 37.0916 35.4729 37.0904C35.5008 37.0421 35.5463 37.0067 35.5999 36.9915C35.6535 36.9763 35.711 36.9826 35.76 37.0091L35.7606 37.008L37.6181 38.0805V35.9393H37.6188C37.6204 35.8846 37.6429 35.8326 37.6816 35.7939C37.7203 35.7553 37.7724 35.733 37.8271 35.7315V35.7307H39.0023V35.7321C39.0037 35.7321 39.005 35.7319 39.0064 35.7317C39.0076 35.7315 39.0088 35.7314 39.01 35.7314C39.0657 35.7314 39.1192 35.7532 39.1591 35.792C39.1991 35.8308 39.2223 35.8836 39.224 35.9393H39.2251V38.0841L41.0795 37.013L41.0799 37.0136C41.1281 36.9877 41.1844 36.9812 41.2372 36.9955C41.29 37.0097 41.3354 37.0437 41.364 37.0903L41.3647 37.0899L41.9523 38.1077L41.9512 38.1083C41.952 38.1097 41.9529 38.1108 41.9539 38.112C41.9545 38.1129 41.9551 38.1137 41.9556 38.1146C41.9835 38.1629 41.9914 38.2202 41.9778 38.2742C41.9641 38.3283 41.9299 38.3749 41.8825 38.4042L41.883 38.4051L40.0319 39.4739L41.8745 40.5377L41.8709 40.544C41.8714 40.5443 41.872 40.5445 41.8726 40.5448Z" fill="#0E6AC7"/>
</svg>
